inDegrees=no
num_controls=7
num_derivatives=13
num_iterations=149
num_multipliers=7
num_parameters=0
num_slacks=7
num_states=26
objective=5.770990
objective_accelerations=0.669112
objective_balance=0.021623
objective_effort=0.481887
objective_height=4.550656
objective_ligament=0.047711
solver_duration=1238.322269
status=Solve_Succeeded
success=true
DataType=double
version=3
OpenSimVersion=4.4-2022-07-23-0e9fedc
endheader
time	/jointset/ground_pelvis/pelvis_tilt/value	/jointset/ground_pelvis/pelvis_tx/value	/jointset/ground_pelvis/pelvis_ty/value	/jointset/hip_r/hip_flexion_r/value	/jointset/hip_r/hip_adduction_r/value	/jointset/hip_r/hip_rotation_r/value	/jointset/back/lumbar_extension/value	/jointset/patellofemoral_r/patellar_flexion_r/value	/jointset/knee_r/knee_flexion_r/value	/jointset/knee_r/knee_adduction_r/value	/jointset/knee_r/knee_rotation_r/value	/jointset/ankle_r/ankle_angle_r/value	/jointset/subtalar_r/subtalar_angle_r/value	/jointset/ground_pelvis/pelvis_tilt/speed	/jointset/ground_pelvis/pelvis_tx/speed	/jointset/ground_pelvis/pelvis_ty/speed	/jointset/hip_r/hip_flexion_r/speed	/jointset/hip_r/hip_adduction_r/speed	/jointset/hip_r/hip_rotation_r/speed	/jointset/back/lumbar_extension/speed	/jointset/patellofemoral_r/patellar_flexion_r/speed	/jointset/knee_r/knee_flexion_r/speed	/jointset/knee_r/knee_adduction_r/speed	/jointset/knee_r/knee_rotation_r/speed	/jointset/ankle_r/ankle_angle_r/speed	/jointset/subtalar_r/subtalar_angle_r/speed	/forceset/tau_hip_flexion_r	/forceset/tau_hip_adduction_r	/forceset/tau_hip_rotation_r	/forceset/tau_knee_flexion_r	/forceset/tau_ankle_angle_r	/forceset/tau_subtalar_angle_r	/forceset/tau_lumbar_extension	lambda_cid13_p0	lambda_cid14_p0	lambda_cid14_p1	lambda_cid14_p2	lambda_cid14_p3	lambda_cid14_p4	lambda_cid14_p5	/jointset/ground_pelvis/pelvis_tilt/accel	/jointset/ground_pelvis/pelvis_tx/accel	/jointset/ground_pelvis/pelvis_ty/accel	/jointset/hip_r/hip_flexion_r/accel	/jointset/hip_r/hip_adduction_r/accel	/jointset/hip_r/hip_rotation_r/accel	/jointset/back/lumbar_extension/accel	/jointset/patellofemoral_r/patellar_flexion_r/accel	/jointset/knee_r/knee_flexion_r/accel	/jointset/knee_r/knee_adduction_r/accel	/jointset/knee_r/knee_rotation_r/accel	/jointset/ankle_r/ankle_angle_r/accel	/jointset/subtalar_r/subtalar_angle_r/accel	gamma_cid13_p0	gamma_cid14_p0	gamma_cid14_p1	gamma_cid14_p2	gamma_cid14_p3	gamma_cid14_p4	gamma_cid14_p5
1.5	-0.1038753931525959	0.02934115973833649	0.8077538099098407	0.8570882053863079	-0.2242121701639494	-0.1239171514002848	-0.6305763327111761	0.9702706391661627	0.970270639166165	-0.05243846287800427	0.1745158635400211	0.310325572326461	0.1429851162843903	0.514348319971535	0.232050134721475	0.5480522528726581	-2.143234812806917	0.02122884914284917	-0.2019485647225461	0.80195940433779	-2.043197052980862	-2.043197052981055	0.4602941518148686	3.240995849694538e-05	-0.5256741811813972	-0.1795700034075501	-0.1713558376872175	0.001583088408578723	0.01807737900224021	-0.3016411262086175	0.005958315962420133	0.003286770499454042	0.2198529497948069	-7.678266352085932	-39.60527715867939	-4.372365334824843	-0.1771919535257879	-2.682074908165953	-627.8870632167575	66.04481198962114	0.207282998315546	0.6065948277757787	-0.5533438272423821	-1.050720670820019	-0.2188925346039077	-0.5800465067047199	1.882360846612098	-1.405298160356678	-1.405298160356683	0.4960132172649742	-0.03183016113369537	-0.7383700147067264	-0.4540276150507553	1.941726528001265e-07	1.645478309197738e-07	-1.108124507339961e-06	1.651958155097832e-06	1.944646250569953e-08	3.409193861349684e-07	-7.294940201173782e-07
1.51	-0.09872181454128322	0.03169171401599622	0.813205568110104	0.8356053366305096	-0.224011890776625	-0.1259656280195314	-0.6224644416852413	0.9497709611041022	0.9497709611041318	-0.0478090909119305	0.1745161680541924	0.3050323944211685	0.1411654387839962	0.5162872775645277	0.2380285278295067	0.5421798782720146	-2.153046416682343	0.01881758661648443	-0.2077630028841307	0.8202954639589359	-2.056450708573478	-2.056450708573576	0.465534894631092	2.761370818920141e-05	-0.5328749184205719	-0.1843248568697874	-0.1636481199666301	0.0003546844126493503	0.01800649974585406	-0.2974165909615675	0.007621801653809096	0.002490827184392922	0.2127651235401352	-8.700724589240508	-38.77473812134864	-4.446402625567282	-0.3095613115038804	-2.705372887225003	-622.512309038634	65.56342361360066	0.175195559777321	0.5886433266681865	-0.6220394039005243	-0.9024845483217016	-0.2535438098129156	-0.5842765738610193	1.790727985766398	-1.242259729353654	-1.242259729339245	0.5311190606519496	0.0153022135333209	-0.6978994133539262	-0.480163748299629	1.917444032578228e-07	1.489839140192516e-07	-1.276006688706163e-06	1.502471361509178e-06	4.198846466793641e-08	3.509012362590976e-07	-8.746885408520238e-07
1.52	-0.09355124767006535	0.0341010885796056	0.8185950315388758	0.8140331309754641	-0.2238359841541937	-0.128072675840991	-0.6141728901699175	0.929147374392019	0.9291473743920214	-0.04312870866829489	0.1745164459199914	0.2996698143765171	0.1392994228416823	0.5177459719570261	0.2438141919114077	0.5355932985743737	-2.161102192654481	0.01635429616370488	-0.2136628051647469	0.8378915022161537	-2.067978782991676	-2.067978782991677	0.4704962073213468	2.708027840142509e-05	-0.539554609052985	-0.188837691791606	-0.1559404022460037	-0.0008737195832789569	0.01793562048907522	-0.2931920557145521	0.009285287345198397	0.001694883869342512	0.205677297285499	-9.778810105121046	-37.93947349247792	-4.512653829795272	-0.4511207111888679	-2.752945651199423	-617.0783086719065	65.14929003013744	0.1112303582160392	0.568049022550101	-0.6961848466418616	-0.6995550901625198	-0.229298119887091	-0.5971193305113535	1.734356573826121	-1.060181925472678	-1.060181925472676	0.4401271920715285	-0.03097759702913593	-0.6341606933538524	-0.4056239069671874	1.869232195261619e-07	1.402479918289353e-07	-1.318429783518424e-06	1.420688362125747e-06	4.976133518762265e-08	3.54513519011155e-07	-9.333725000360555e-07
1.53	-0.08836859508725524	0.03656729305511106	0.8239151083672382	0.7923893143610138	-0.2236848778579394	-0.1302389395170089	-0.6057091286500464	0.9084172911929747	0.9084172911930147	-0.03840010619547361	0.1745164606216126	0.2942431412298352	0.1373896639993485	0.5187018430742315	0.2493876274605265	0.5283099062131109	-2.16736091216625	0.01385831147245133	-0.2195982156579139	0.8547204212841324	-2.077738146023964	-2.077738146023912	0.475184627212094	-2.32566779059593e-05	-0.5456873338484888	-0.1930729021289568	-0.1481862313666528	-0.002053324541933663	0.01790789948928791	-0.289300781335794	0.01117499057095301	0.0006344814219361076	0.1985511893832191	-10.86605508222336	-37.07587024912737	-4.71498655252153	-0.541070735511991	-2.77771529663253	-611.9582289384263	64.54069344129705	0.07537214710530002	0.5461369836122998	-0.7611706297528384	-0.5439803993037856	-0.2609247819524858	-0.5927124582945422	1.636102501592516	-0.8888919972893472	-0.8888919972812601	0.4770988810021892	0.008311477279297479	-0.5888798445419966	-0.426312352134591	1.795595432183091e-07	1.387668140182127e-07	-1.227552598867123e-06	1.410840644085365e-06	4.184200333709901e-08	3.513581364303862e-07	-9.001389875725608e-07
1.54	-0.08317886246156815	0.03908806111861052	0.829159000432211	0.770691920547911	-0.2235589666362375	-0.1324647494078687	-0.5970812893538369	0.8875985986626082	0.8875985986626189	-0.03362583962501393	0.1745160465981206	0.2887579305408179	0.1354387845026387	0.519161980536794	0.2547269095102137	0.5203563458964845	-2.171817632382806	0.01131528125285777	-0.2255720481340851	0.8707070574845148	-2.085700649263552	-2.085700649263447	0.479629026839864	-5.866474577061089e-05	-0.5512621175197204	-0.1970618226669291	-0.1404320604872693	-0.003232929500548852	0.01788017848903513	-0.2854095069570776	0.01306469379671954	-0.0004259210253954223	0.191425081480965	-11.9526914829614	-36.21105461731167	-4.913250000234624	-0.6360755705236469	-2.814922486851728	-606.8270774835401	63.99792565964622	0.01208362728679713	0.5212183226642662	-0.830218437714584	-0.3391552311196299	-0.2387072255553413	-0.604803727112572	1.565900000306479	-0.7008099669327229	-0.7008099669327231	0.3913231394763994	-0.02799181933990324	-0.522572468498824	-0.3563659470917032	1.756129573492953e-07	1.296420336502319e-07	-1.263202259947087e-06	1.317477935288187e-06	5.12709184847636e-08	3.457172698955812e-07	-9.323563841311365e-07
1.55	-0.07798706737726048	0.04166096907374249	0.8343200821198578	0.7489590941178835	-0.2234585930911015	-0.1347510816185733	-0.5882978613109104	0.8667092919568524	0.8667092919568533	-0.0288089709889114	0.1745155966821698	0.2832198157133523	0.1334494662624584	0.5191113800887679	0.2598069931561717	0.5117560455012559	-2.174435660949524	0.008755411001801622	-0.2316922400379083	0.8858264341203712	-2.091848457760343	-2.091848457760217	0.4837058102219953	-3.401029981250895e-05	-0.5562639416846087	-0.2007555474566779	-0.1327655373708793	-0.004557562853614975	0.0178655054899401	-0.2816595001782283	0.01483017312598752	-0.001543645843053355	0.1843714333260341	-13.0352218824519	-35.41653313742799	-5.149032969126949	-0.724736949570188	-2.759337350231171	-602.0566608959469	63.45833055878959	-0.02647259356172841	0.4942695392454099	-0.8904612624952115	-0.1763159059399632	-0.2651938078170673	-0.6150454848591984	1.462138947528346	-0.5249662916715486	-0.5249662916685052	0.4098203017588726	0.01744987772643703	-0.4743949703539565	-0.3690561470178345	1.75603453942422e-07	1.117104938141062e-07	-1.444632851978281e-06	1.127891432792968e-06	8.06880312607744e-08	3.372126935876474e-07	-1.03998461064992e-06
1.56	-0.0727983464399968	0.04428325109606964	0.8393920557191386	0.7272094495548775	-0.2233839316250596	-0.1370984994608825	-0.5793678030111685	0.8457678671659986	0.8457678671660094	-0.0239525416461545	0.1745153444708347	0.2776346011282624	0.1314245746939612	0.5185471511322259	0.2646017229492497	0.5025347282233177	-2.175181258975928	0.006172865433276705	-0.2377891744554138	0.9000331088484093	-2.096124266281909	-2.096124266281763	0.4875411681712132	-1.912380734803574e-05	-0.5606820690442946	-0.2041764883304758	-0.1250990142544744	-0.005882196206647569	0.01785083249093556	-0.277909493399372	0.01659565245526596	-0.002661370660657844	0.1773177851711116	-14.10881488805265	-34.62187714170432	-5.381882644211895	-0.8171899411697223	-2.711014805846041	-597.2898640793256	62.97732111090467	-0.09064207441702725	0.4641475520887855	-0.9544218142564141	0.03533087694327752	-0.2432422890493695	-0.600152229849394	1.383359618742391	-0.3264099718879477	-0.3264099718879698	0.3430380528939866	-0.02994541003802805	-0.4058331074577606	-0.3018091639017034	1.784546644516051e-07	9.472082854909496e-08	-1.657346244933659e-06	9.289902294811024e-07	1.126705027098984e-07	3.280417164338451e-07	-1.151288777328221e-06
1.57	-0.06761784826058896	0.0469520114671249	0.8443688187445506	0.7054617092984147	-0.2233350832526862	-0.1395075001142714	-0.5703003850969077	0.8247930229617728	0.8247930229617495	-0.0190596450278354	0.1745155823507185	0.2720082143691137	0.1293670603025225	0.5174643146055844	0.2690979763288208	0.4927242506433007	-2.17404910013895	0.00359736233482841	-0.243994322759035	0.9132845297916274	-2.098521350042435	-2.098521350042368	0.4910014700239924	5.724927031480782e-05	-0.5644900311635875	-0.2072741759340369	-0.1173899352290314	-0.007298211224214213	0.01784928031279558	-0.2746444284995735	0.01877858016598219	-0.003965118950990943	0.1702809710863002	-15.16965454637915	-33.7361337841365	-5.698690610378621	-0.874421134173033	-2.726539676475504	-592.964426165964	62.43240671094059	-0.130325810698296	0.4345416165373177	-1.008342206562516	0.1998190186020085	-0.2646944693216989	-0.6279628535734024	1.271141699620875	-0.1479116163037613	-0.1479116163155721	0.3417431608749887	0.02508157835517617	-0.3524158301395914	-0.3061693066099216	1.848817673558586e-07	7.890850649797692e-08	-1.909163139044266e-06	7.184456501484296e-07	1.478596725004138e-07	3.180377382227068e-07	-1.267187869205919e-06
1.58	-0.06245082272024997	0.04966416984910375	0.849244680698825	0.6837348227566155	-0.223311987941112	-0.1419780055952756	-0.5611054312997172	0.8038038971122777	0.8038038971122774	-0.01413330200912444	0.1745163145435131	0.2663469203755744	0.1272800848854438	0.5158526233225802	0.2732813251339705	0.4823545139957843	-2.171010516040898	0.001022253273176442	-0.2500901399808501	0.9255402854352803	-2.098980595329716	-2.098980595329727	0.4942304482529586	7.973881542871911e-05	-0.5676635159218535	-0.2100686934586495	-0.1096808562035626	-0.008714226241675404	0.0178477281349847	-0.2713793635997554	0.02096150787672713	-0.005268867241161769	0.1632441570014968	-16.21496713942306	-32.85012126764803	-6.012982883691422	-0.9348733508015014	-2.746594656720424	-588.6434558174748	61.93686320919333	-0.1964130256902582	0.4015666372050569	-1.06627362775625	0.4166159291581951	-0.2431634816902235	-0.5782860134882016	1.184226558828939	0.06115772276109694	0.06115772276109704	0.296773328131592	-0.0407221165477225	-0.2789376352517698	-0.2411751481119602	1.87953417157591e-07	6.4536653313136e-08	-2.10612558655487e-06	5.136117606681591e-07	1.763471228556515e-07	3.073158851310726e-07	-1.341504437884068e-06
1.59	-0.05730256894019526	0.05241647490118134	0.8540141516923092	0.6620479926178744	-0.2233144483750023	-0.1445095783086294	-0.5517930379976262	0.782819872127524	0.7828198721275539	-0.009176576586598493	0.1745173049344867	0.2606570556041592	0.1251669529267643	0.513710142259126	0.2771150120258527	0.4714560092645149	-2.166021561079129	-0.001509894253910536	-0.2562092571028148	0.9367565676454435	-2.097487844330001	-2.097487844329974	0.497067682665803	0.0001178109766111833	-0.5702055416907202	-0.2125045010489271	-0.1021990197506141	-0.01004201490306176	0.017783669367107	-0.2680169470414286	0.02263409040312778	-0.006645434844404293	0.1563859478444786	-17.24272272718514	-32.16693803476431	-6.391887324843389	-0.9879111238301141	-2.551315732449968	-584.7784051656347	61.35875801246941	-0.2363628058672266	0.3646101876798094	-1.114132481279061	0.590130860231397	-0.257735479717388	-0.6262536587280573	1.063057950771232	0.2437802638460213	0.24378026385176	0.2698288529474735	0.02598776542655006	-0.2261669235736016	-0.2371433467010195	1.864712377487593e-07	5.211972216109966e-08	-2.22864271367976e-06	3.165280931304339e-07	1.957393825487271e-07	2.956197732730507e-07	-1.359387582219976e-06
